<svg width="39" height="38" viewBox="0 0 39 38" fill="none" xmlns="http://www.w3.org/2000/svg">
<g id="Facebook" clip-path="url(#clip0_516_4904)">
<g id="Vector">
<path d="M12.8776 23.623H16.3519V35.4078H21.5633V23.623H26.7748V18.536H21.5633V15.1446C21.5633 14.212 22.3451 13.449 23.3005 13.449H26.7748V8.36196H22.4319C19.0792 8.36196 16.3519 11.0242 16.3519 14.2968V18.536H12.8776V23.623Z" fill="white"/>
<path fill-rule="evenodd" clip-rule="evenodd" d="M19.8262 35.2761C29.2724 35.2761 36.93 27.8199 36.93 18.6223C36.93 9.42467 29.2724 1.96853 19.8262 1.96853C10.38 1.96853 2.72232 9.42467 2.72232 18.6223C2.72232 27.8199 10.38 35.2761 19.8262 35.2761ZM19.8262 36.8618C30.1718 36.8618 38.5586 28.6957 38.5586 18.6223C38.5586 8.5489 30.1718 0.382812 19.8262 0.382812C9.48055 0.382812 1.09375 8.5489 1.09375 18.6223C1.09375 28.6957 9.48055 36.8618 19.8262 36.8618Z" fill="white"/>
</g>
</g>
<defs>
<clipPath id="clip0_516_4904">
<rect width="38" height="37" fill="white" transform="translate(0.820312 0.117188)"/>
</clipPath>
</defs>
</svg>
