<svg width="40" height="32" viewBox="0 0 40 32" fill="none" xmlns="http://www.w3.org/2000/svg">
<g id="Gmiail">
<path id="Vector 1" d="M4.19192 28.5218H6.48119L6.4862 8.54112L19.9138 18.0491L33.3993 8.47575L33.3938 28.5554H35.6939C37.3466 28.5554 37.879 27.0466 37.879 26.3681L37.8669 4.5631C37.8669 3.22178 37.462 2.78225 36.8976 2.39076C36.1634 1.88154 35.1305 1.8747 34.3521 2.34281L19.9096 12.6202L6.16888 2.90748C5.82809 2.66584 5.06811 2.09128 4.31574 2.09128C3.37527 2.09128 2.80877 2.49006 2.49097 2.8421C2.25238 3.10641 2 3.74675 2 4.07741V26.3671C2 28.0647 3.61289 28.5218 4.19192 28.5218Z" stroke="white" stroke-width="1.30431" stroke-linejoin="round"/>
<rect id="Rectangle 2" x="2.02716" y="1.98028" width="35.9582" height="26.545" rx="1.95647" stroke="white" stroke-width="1.30431"/>
</g>
</svg>
