<svg width="35" height="35" viewBox="0 0 35 35" fill="none" xmlns="http://www.w3.org/2000/svg">
<g id="Group">
<path id="Vector" d="M17.8172 3.73537C22.3449 3.73537 22.8794 3.75132 24.6665 3.8351C26.318 3.91089 27.2156 4.18614 27.814 4.41751C28.6038 4.72467 29.1703 5.09167 29.7647 5.68606C30.3591 6.28044 30.726 6.8429 31.0332 7.63674C31.2646 8.23511 31.5398 9.13266 31.6156 10.7842C31.6954 12.5713 31.7154 13.1098 31.7154 17.6335C31.7154 22.1572 31.6994 22.6957 31.6156 24.4829C31.5398 26.1344 31.2646 27.0319 31.0332 27.6303C30.726 28.4201 30.3591 28.9866 29.7647 29.581C29.1703 30.1754 28.6078 30.5424 27.814 30.8495C27.2156 31.0809 26.318 31.3561 24.6665 31.4319C22.8794 31.5117 22.3449 31.5317 17.8172 31.5317C13.2895 31.5317 12.755 31.5157 10.9679 31.4319C9.31636 31.3561 8.41879 31.0809 7.82042 30.8495C7.03057 30.5424 6.46411 30.1754 5.86973 29.581C5.27535 28.9866 4.90835 28.4241 4.60119 27.6303C4.36982 27.0319 4.09456 26.1344 4.01876 24.4829C3.93898 22.6957 3.91904 22.1572 3.91904 17.6335C3.91904 13.1098 3.93499 12.5713 4.01876 10.7842C4.09456 9.13266 4.36982 8.23511 4.60119 7.63674C4.90835 6.84689 5.27535 6.28044 5.86973 5.68606C6.46411 5.09167 7.02659 4.72467 7.82042 4.41751C8.41879 4.18614 9.31636 3.91089 10.9679 3.8351C12.755 3.75531 13.2935 3.73537 17.8172 3.73537ZM17.8172 0.679688C13.2137 0.679688 12.6353 0.699631 10.8282 0.783403C9.02513 0.867175 7.79249 1.1504 6.71143 1.57325C5.59846 2.00807 4.65305 2.58649 3.70762 3.52793C2.76619 4.46937 2.18376 5.41479 1.75294 6.53175C1.33408 7.60882 1.04687 8.84146 0.963096 10.6485C0.879325 12.4556 0.859375 13.034 0.859375 17.6375C0.859375 22.241 0.879325 22.8194 0.963096 24.6265C1.04687 26.4296 1.33009 27.6622 1.75294 28.7433C2.18775 29.8562 2.76619 30.8017 3.70762 31.7471C4.64906 32.6885 5.59447 33.2709 6.71143 33.7018C7.7885 34.1206 9.02114 34.4078 10.8282 34.4916C12.6353 34.5754 13.2137 34.5953 17.8172 34.5953C22.4207 34.5953 22.9991 34.5754 24.8062 34.4916C26.6093 34.4078 27.8419 34.1246 28.923 33.7018C30.0359 33.2669 30.9813 32.6885 31.9268 31.7471C32.8682 30.8056 33.4506 29.8602 33.8815 28.7433C34.3003 27.6662 34.5875 26.4336 34.6713 24.6265C34.7551 22.8194 34.775 22.241 34.775 17.6375C34.775 13.034 34.7551 12.4556 34.6713 10.6485C34.5875 8.84545 34.3043 7.61281 33.8815 6.53175C33.4466 5.41878 32.8682 4.47336 31.9268 3.52793C30.9853 2.58649 30.0399 2.00408 28.923 1.57325C27.8459 1.15439 26.6133 0.867175 24.8062 0.783403C22.9991 0.699631 22.4207 0.679688 17.8172 0.679688Z" fill="white"/>
<path id="Vector_2" d="M17.8137 8.92969C13.0068 8.92969 9.10938 12.8271 9.10938 17.634C9.10938 22.4409 13.0068 26.3383 17.8137 26.3383C22.6206 26.3383 26.518 22.4409 26.518 17.634C26.518 12.8271 22.6206 8.92969 17.8137 8.92969ZM17.8137 23.2866C14.6942 23.2866 12.1611 20.7575 12.1611 17.634C12.1611 14.5105 14.6902 11.9814 17.8137 11.9814C20.9372 11.9814 23.4663 14.5105 23.4663 17.634C23.4663 20.7575 20.9372 23.2866 17.8137 23.2866Z" fill="white"/>
<path id="Vector_3" d="M26.8704 10.6236C27.994 10.6236 28.9048 9.71274 28.9048 8.58914C28.9048 7.46554 27.994 6.55469 26.8704 6.55469C25.7468 6.55469 24.8359 7.46554 24.8359 8.58914C24.8359 9.71274 25.7468 10.6236 26.8704 10.6236Z" fill="white"/>
</g>
</svg>
