<svg width="16" height="16" viewBox="0 0 16 16" fill="none" xmlns="http://www.w3.org/2000/svg">
<path id="Vector" d="M11.1161 4.25C11.1161 3.6284 10.8339 3.03226 10.3315 2.59272C9.82921 2.15318 9.1479 1.90625 8.4375 1.90625C7.7271 1.90625 7.04579 2.15318 6.54346 2.59272C6.04113 3.03226 5.75893 3.6284 5.75893 4.25C5.75893 4.8716 6.04113 5.46774 6.54346 5.90728C7.04579 6.34682 7.7271 6.59375 8.4375 6.59375C9.1479 6.59375 9.82921 6.34682 10.3315 5.90728C10.8339 5.46774 11.1161 4.8716 11.1161 4.25ZM4.15179 4.25C4.15179 3.25544 4.60331 2.30161 5.40704 1.59835C6.21077 0.895088 7.30086 0.5 8.4375 0.5C9.57414 0.5 10.6642 0.895088 11.468 1.59835C12.2717 2.30161 12.7232 3.25544 12.7232 4.25C12.7232 5.24456 12.2717 6.19839 11.468 6.90165C10.6642 7.60491 9.57414 8 8.4375 8C7.30086 8 6.21077 7.60491 5.40704 6.90165C4.60331 6.19839 4.15179 5.24456 4.15179 4.25ZM2.58817 14.0938H14.2868C13.9888 12.2393 12.1674 10.8125 9.96763 10.8125H6.90737C4.70759 10.8125 2.88616 12.2393 2.58817 14.0938ZM0.9375 14.6299C0.9375 11.7441 3.60938 9.40625 6.90737 9.40625H9.96763C13.2656 9.40625 15.9375 11.7441 15.9375 14.6299C15.9375 15.1104 15.4922 15.5 14.9431 15.5H1.93192C1.38281 15.5 0.9375 15.1104 0.9375 14.6299Z" fill="#09E294"/>
</svg>
