<svg width="34" height="34" viewBox="0 0 34 34" fill="none" xmlns="http://www.w3.org/2000/svg">
<g id="Whatsapp">
<path id="Vector" d="M1.55469 32.1554L3.70216 24.3198C2.38176 22.0272 1.67789 19.4225 1.68524 16.7599C1.68524 8.41646 8.47611 1.63281 16.8197 1.63281C20.868 1.63281 24.6696 3.2071 27.5211 6.06567C30.3795 8.92423 31.9539 12.726 31.9467 16.7672C31.9467 25.1106 25.1558 31.8943 16.8122 31.8943H16.8051C14.278 31.8933 11.7912 31.2597 9.57165 30.0514L1.55469 32.1555V32.1554ZM9.94887 27.3089L10.4059 27.5846C12.3359 28.731 14.5487 29.3332 16.8051 29.3404H16.8124C23.741 29.3404 29.3856 23.7032 29.3856 16.7672C29.3856 13.408 28.0797 10.252 25.7072 7.8723C23.3348 5.49261 20.1715 4.18666 16.8124 4.18666C9.87637 4.18666 4.23187 9.82394 4.23187 16.7599C4.23187 19.1324 4.892 21.4468 6.15448 23.4491L6.45197 23.928L5.18227 28.5641L9.94887 27.3089Z" fill="white"/>
<path id="Vector_2" d="M13.0362 10.4337C12.7532 9.80246 12.4557 9.78789 12.1873 9.78066C11.9697 9.77344 11.7158 9.77344 11.4618 9.77344C11.2079 9.77344 10.8015 9.86774 10.4533 10.245C10.105 10.6223 9.13281 11.5365 9.13281 13.4011C9.13281 15.2584 10.4896 17.0576 10.6782 17.3115C10.8668 17.5655 13.2973 21.5051 17.1353 23.0214C20.3276 24.2839 20.9807 24.0299 21.6698 23.9646C22.3663 23.8993 23.9045 23.0505 24.2237 22.1653C24.5356 21.2802 24.5356 20.5256 24.4413 20.366C24.347 20.2063 24.0931 20.1122 23.7158 19.9234C23.3386 19.7348 21.4812 18.8207 21.133 18.6901C20.7847 18.5595 20.5308 18.5015 20.2842 18.8787C20.0301 19.2559 19.3047 20.1048 19.087 20.3588C18.8693 20.6127 18.6445 20.6417 18.2671 20.4531C17.8899 20.2645 16.671 19.8654 15.2273 18.574C14.1027 17.5728 13.3409 16.3321 13.1232 15.9549C12.9055 15.5776 13.1015 15.3743 13.2901 15.1859C13.4569 15.0189 13.6673 14.7432 13.8561 14.5256C14.0447 14.3079 14.1099 14.1484 14.2333 13.8944C14.3566 13.6405 14.2986 13.4228 14.2043 13.2342C14.11 13.0455 13.37 11.1809 13.0362 10.4337Z" fill="white"/>
</g>
</svg>
