<svg width="172" height="160" viewBox="0 0 172 160" fill="none" xmlns="http://www.w3.org/2000/svg">
<path d="M41.3035 45.5089H59.7979C66.3059 45.5089 71.5637 50.5921 71.5637 56.8839C71.5637 63.1757 66.3059 68.2589 59.7979 68.2589H12.7346C6.2266 68.2589 0.96875 63.1757 0.96875 56.8839V11.3839C0.96875 5.09209 6.2266 0.00888726 12.7346 0.00888726C19.2426 0.00888726 24.5004 5.09209 24.5004 11.3839V29.5839L30.9716 23.3276C63.1438 -7.77588 115.281 -7.77588 147.453 23.3276C179.626 54.4312 179.626 104.837 147.453 135.94C115.281 167.044 63.1438 167.044 30.9716 135.94C26.3756 131.497 26.3756 124.281 30.9716 119.837C35.5676 115.394 43.0316 115.394 47.6276 119.837C70.6077 142.054 107.854 142.054 130.834 119.837C153.814 97.6206 153.814 61.6116 130.834 39.3948C107.854 17.178 70.6077 17.178 47.6276 39.3948L41.3035 45.5089Z" fill="black" fill-opacity="0.4"/>
</svg>
