<svg width="165" height="182" viewBox="0 0 165 182" fill="none" xmlns="http://www.w3.org/2000/svg">
<path d="M76.5571 0H122.115C126.777 0 131.256 1.81289 134.56 5.01211L159.486 29.1484C162.79 32.3477 164.662 36.6844 164.662 41.1988V119.438C164.662 128.857 156.769 136.5 147.041 136.5H76.5571C66.8288 136.5 58.936 128.857 58.936 119.438V17.0625C58.936 7.64258 66.8288 0 76.5571 0ZM17.8203 45.5H47.1887V68.25H23.6939V159.25H94.1781V147.875H117.673V164.938C117.673 174.357 109.78 182 100.052 182H17.8203C8.09198 182 0.199219 174.357 0.199219 164.938V62.5625C0.199219 53.1426 8.09198 45.5 17.8203 45.5Z" fill="black" fill-opacity="0.71"/>
</svg>
