<svg width="182" height="176" viewBox="0 0 182 176" fill="none" xmlns="http://www.w3.org/2000/svg">
<path d="M169.261 5.67817C161.429 -1.89272 148.771 -1.89272 140.94 5.67817L130.177 16.0493L165.184 49.8936L175.947 39.4879C183.778 31.917 183.778 19.6791 175.947 12.1082L169.261 5.67817ZM62.2721 81.7328C60.0908 83.8416 58.4102 86.4344 57.4447 89.3037L46.8603 120.002C45.8233 122.975 46.6458 126.259 48.9343 128.506C51.2228 130.753 54.6198 131.514 57.7308 130.511L89.4841 120.279C92.4162 119.345 95.0981 117.72 97.3151 115.612L157.139 57.741L122.096 23.8621L62.2721 81.7328ZM34.9528 20.3014C16.001 20.3014 0.625 35.1666 0.625 53.4889V141.989C0.625 160.311 16.001 175.176 34.9528 175.176H126.494C145.446 175.176 160.822 160.311 160.822 141.989V108.801C160.822 102.682 155.708 97.7388 149.379 97.7388C143.05 97.7388 137.936 102.682 137.936 108.801V141.989C137.936 148.108 132.823 153.051 126.494 153.051H34.9528C28.6236 153.051 23.5102 148.108 23.5102 141.989V53.4889C23.5102 47.3699 28.6236 42.4264 34.9528 42.4264H69.2807C75.6099 42.4264 80.7233 37.4828 80.7233 31.3639C80.7233 25.2449 75.6099 20.3014 69.2807 20.3014H34.9528Z" fill="black" fill-opacity="0.71"/>
</svg>
