<svg width="135" height="149" viewBox="0 0 135 149" fill="none" xmlns="http://www.w3.org/2000/svg">
<path d="M40.7754 5.15098C42.3962 1.97891 45.7279 0 49.3597 0H85.4976C89.1294 0 92.461 1.97891 94.0818 5.15098L96.2429 9.3125H125.057C130.37 9.3125 134.662 13.474 134.662 18.625C134.662 23.776 130.37 27.9375 125.057 27.9375H9.80007C4.48744 27.9375 0.195312 23.776 0.195312 18.625C0.195312 13.474 4.48744 9.3125 9.80007 9.3125H38.6143L40.7754 5.15098ZM9.80007 37.25H125.057V130.375C125.057 140.648 116.443 149 105.848 149H29.0096C18.4143 149 9.80007 140.648 9.80007 130.375V37.25ZM38.6143 55.875C35.973 55.875 33.812 57.9703 33.812 60.5312V125.719C33.812 128.28 35.973 130.375 38.6143 130.375C41.2557 130.375 43.4167 128.28 43.4167 125.719V60.5312C43.4167 57.9703 41.2557 55.875 38.6143 55.875ZM67.4286 55.875C64.7873 55.875 62.6262 57.9703 62.6262 60.5312V125.719C62.6262 128.28 64.7873 130.375 67.4286 130.375C70.0699 130.375 72.231 128.28 72.231 125.719V60.5312C72.231 57.9703 70.0699 55.875 67.4286 55.875ZM96.2429 55.875C93.6016 55.875 91.4405 57.9703 91.4405 60.5312V125.719C91.4405 128.28 93.6016 130.375 96.2429 130.375C98.8842 130.375 101.045 128.28 101.045 125.719V60.5312C101.045 57.9703 98.8842 55.875 96.2429 55.875Z" fill="black" fill-opacity="0.71"/>
</svg>
